<?xml version="1.0" encoding="UTF-8"?>
<svg height="16px" viewBox="0 0 16 16" width="16px" xmlns="http://www.w3.org/2000/svg" xmlns:xlink="http://www.w3.org/1999/xlink">
    <filter id="a" height="100%" width="100%" x="0%" y="0%">
        <feColorMatrix in="SourceGraphic" type="matrix" values="0 0 0 0 1 0 0 0 0 1 0 0 0 0 1 0 0 0 1 0"/>
    </filter>
    <mask id="b">
        <g filter="url(#a)">
            <rect fill-opacity="0.8" height="16" width="16"/>
        </g>
    </mask>
    <radialGradient id="c" cx="128.126312" cy="278.868866" gradientTransform="matrix(-1.525158 0.543708 0.36848 1.245429 128.65538 -325.974747)" gradientUnits="userSpaceOnUse" r="48.000004">
        <stop offset="0" stop-color="#bde8f7"/>
        <stop offset="1" stop-color="#aedfde" stop-opacity="0"/>
    </radialGradient>
    <clipPath id="d">
        <rect height="152" width="192"/>
    </clipPath>
    <g clip-path="url(#d)" mask="url(#b)" transform="matrix(1 0 0 1 -168 -16)">
        <path d="m 116 36 h -88 v 46 h 88 z m 0 0" fill="url(#c)"/>
    </g>
    <path d="m 14 0.269531 v 3.460938 l -2 1 l -2 -1 v -3.4375 c -1.230469 0.710937 -1.992188 2.019531 -2 3.4375 c 0 1.433593 0.765625 2.753906 2.003906 3.46875 c 0 0.011719 -0.003906 0.023437 -0.003906 0.03125 v 6.5 c 0 1.109375 0.890625 2 2 2 s 2 -0.890625 2 -2 v -6.5 c 0 -0.007813 -0.003906 -0.019531 -0.003906 -0.03125 c 1.238281 -0.714844 2.003906 -2.035157 2.003906 -3.46875 c 0 -1.425781 -0.761719 -2.75 -2 -3.460938 z m -11 1.730469 c -1.089844 0 -2 0.929688 -2 2 v 7 h 2 v -7 h 3.019531 c -0.011719 -0.082031 -0.015625 -0.167969 -0.019531 -0.25 c 0.003906 -0.59375 0.101562 -1.183594 0.292969 -1.75 z m -3 10 c 0 1.089844 0.910156 2 2 2 h 6.019531 c -0.011719 -0.085938 -0.019531 -0.175781 -0.019531 -0.269531 v -1.730469 z m 12 0.730469 c 0.414062 0 0.75 0.335937 0.75 0.75 c 0 0.417969 -0.335938 0.75 -0.75 0.75 s -0.75 -0.332031 -0.75 -0.75 c 0 -0.414063 0.335938 -0.75 0.75 -0.75 z m 0 0" fill="#241f31"/>
</svg>
