<?xml version="1.0" encoding="UTF-8"?>
<svg height="128px" viewBox="0 0 128 128" width="128px" xmlns="http://www.w3.org/2000/svg" xmlns:xlink="http://www.w3.org/1999/xlink">
    <linearGradient id="a" gradientTransform="matrix(0.25 0 0 0.0952381 8.70367 92)" gradientUnits="userSpaceOnUse" x1="29.185326" x2="413.185394" y1="168.23407" y2="168.23407">
        <stop offset="0" stop-color="#5e5c64"/>
        <stop offset="0.0186508" stop-color="#77767b"/>
        <stop offset="0.0384616" stop-color="#5e5c64"/>
        <stop offset="0.961538" stop-color="#5e5c64"/>
        <stop offset="0.981349" stop-color="#9a9996"/>
        <stop offset="1" stop-color="#5e5c64"/>
    </linearGradient>
    <radialGradient id="b" cx="95.467613" cy="208.511566" gradientTransform="matrix(1.15347 -0.978464 1.100056 1.147051 -249.608276 -125.76181)" gradientUnits="userSpaceOnUse" r="48.000004">
        <stop offset="0" stop-color="#fd86db"/>
        <stop offset="1" stop-color="#102f9f"/>
    </radialGradient>
    <filter id="c" height="100%" width="100%" x="0%" y="0%">
        <feColorMatrix in="SourceGraphic" type="matrix" values="0 0 0 0 1 0 0 0 0 1 0 0 0 0 1 0 0 0 1 0"/>
    </filter>
    <mask id="d">
        <g filter="url(#c)">
            <rect fill-opacity="0.8" height="128" width="128"/>
        </g>
    </mask>
    <radialGradient id="e" cx="128.126312" cy="278.868866" gradientTransform="matrix(-1.525158 0.543708 0.36848 1.245429 128.65538 -325.974747)" gradientUnits="userSpaceOnUse" r="48.000004">
        <stop offset="0" stop-color="#bde8f7"/>
        <stop offset="1" stop-color="#aedfde" stop-opacity="0"/>
    </radialGradient>
    <clipPath id="f">
        <rect height="152" width="192"/>
    </clipPath>
    <path d="m 20 84 h 88 c 2.210938 0 4 1.789062 4 4 v 24.148438 c 0 2.207031 -1.789062 4 -4 4 h -88 c -2.210938 0 -4 -1.792969 -4 -4 v -24.148438 c 0 -2.210938 1.789062 -4 4 -4 z m 0 0" fill="url(#a)"/>
    <path d="m 20 68 h 88 c 2.210938 0 4 1.78125 4 3.976562 v 36.046876 c 0 2.195312 -1.789062 3.976562 -4 3.976562 h -88 c -2.210938 0 -4 -1.78125 -4 -3.976562 v -36.046876 c 0 -2.195312 1.789062 -3.976562 4 -3.976562 z m 0 0" fill="#3d3846"/>
    <path d="m 108 16 h -88 c -2.214844 0 -4 1.785156 -4 4 v 46 c 0 2.214844 1.785156 4 4 4 h 88 c 2.214844 0 4 -1.785156 4 -4 v -46 c 0 -2.214844 -1.785156 -4 -4 -4 z m 0 0" fill="#241f31"/>
    <path d="m 20 20 h 88 v 46 h -88 z m 0 0" fill="url(#b)"/>
    <path d="m 25 71 h 78 c 1.65625 0 3 1.34375 3 3 v 15 c 0 1.65625 -1.34375 3 -3 3 h -78 c -1.65625 0 -3 -1.34375 -3 -3 v -15 c 0 -1.65625 1.34375 -3 3 -3 z m 0 0" fill="#5e5c64"/>
    <path d="m 45 86 h 36 c 0.550781 0 1 0.449219 1 1 v 2 c 0 0.550781 -0.449219 1 -1 1 h -36 c -0.550781 0 -1 -0.449219 -1 -1 v -2 c 0 -0.550781 0.449219 -1 1 -1 z m 0 0" fill="#241f31"/>
    <path d="m 65 74 h 6 c 0.550781 0 1 0.449219 1 1 v 2 c 0 0.550781 -0.449219 1 -1 1 h -6 c -0.550781 0 -1 -0.449219 -1 -1 v -2 c 0 -0.550781 0.449219 -1 1 -1 z m 0 0" fill="#241f31"/>
    <path d="m 69 80 h 6 c 0.550781 0 1 0.449219 1 1 v 2 c 0 0.550781 -0.449219 1 -1 1 h -6 c -0.550781 0 -1 -0.449219 -1 -1 v -2 c 0 -0.550781 0.449219 -1 1 -1 z m 0 0" fill="#241f31"/>
    <path d="m 55 74 h 6 c 0.550781 0 1 0.449219 1 1 v 2 c 0 0.550781 -0.449219 1 -1 1 h -6 c -0.550781 0 -1 -0.449219 -1 -1 v -2 c 0 -0.550781 0.449219 -1 1 -1 z m 0 0" fill="#241f31"/>
    <path d="m 59 80 h 6 c 0.550781 0 1 0.449219 1 1 v 2 c 0 0.550781 -0.449219 1 -1 1 h -6 c -0.550781 0 -1 -0.449219 -1 -1 v -2 c 0 -0.550781 0.449219 -1 1 -1 z m 0 0" fill="#241f31"/>
    <path d="m 45 74 h 6 c 0.550781 0 1 0.449219 1 1 v 2 c 0 0.550781 -0.449219 1 -1 1 h -6 c -0.550781 0 -1 -0.449219 -1 -1 v -2 c 0 -0.550781 0.449219 -1 1 -1 z m 0 0" fill="#241f31"/>
    <path d="m 49 80 h 6 c 0.550781 0 1 0.449219 1 1 v 2 c 0 0.550781 -0.449219 1 -1 1 h -6 c -0.550781 0 -1 -0.449219 -1 -1 v -2 c 0 -0.550781 0.449219 -1 1 -1 z m 0 0" fill="#241f31"/>
    <path d="m 35 74 h 6 c 0.550781 0 1 0.449219 1 1 v 2 c 0 0.550781 -0.449219 1 -1 1 h -6 c -0.550781 0 -1 -0.449219 -1 -1 v -2 c 0 -0.550781 0.449219 -1 1 -1 z m 0 0" fill="#241f31"/>
    <path d="m 39 80 h 6 c 0.550781 0 1 0.449219 1 1 v 2 c 0 0.550781 -0.449219 1 -1 1 h -6 c -0.550781 0 -1 -0.449219 -1 -1 v -2 c 0 -0.550781 0.449219 -1 1 -1 z m 0 0" fill="#241f31"/>
    <path d="m 35 86 h 6 c 0.550781 0 1 0.449219 1 1 v 2 c 0 0.550781 -0.449219 1 -1 1 h -6 c -0.550781 0 -1 -0.449219 -1 -1 v -2 c 0 -0.550781 0.449219 -1 1 -1 z m 0 0" fill="#241f31"/>
    <path d="m 25 74 h 6 c 0.550781 0 1 0.449219 1 1 v 2 c 0 0.550781 -0.449219 1 -1 1 h -6 c -0.550781 0 -1 -0.449219 -1 -1 v -2 c 0 -0.550781 0.449219 -1 1 -1 z m 0 0" fill="#241f31"/>
    <path d="m 25 80 h 10 c 0.550781 0 1 0.449219 1 1 v 2 c 0 0.550781 -0.449219 1 -1 1 h -10 c -0.550781 0 -1 -0.449219 -1 -1 v -2 c 0 -0.550781 0.449219 -1 1 -1 z m 0 0" fill="#241f31"/>
    <path d="m 25 86 h 6 c 0.550781 0 1 0.449219 1 1 v 2 c 0 0.550781 -0.449219 1 -1 1 h -6 c -0.550781 0 -1 -0.449219 -1 -1 v -2 c 0 -0.550781 0.449219 -1 1 -1 z m 0 0" fill="#241f31"/>
    <path d="m 91 80 h 12 c 0.550781 0 1 0.449219 1 1 v 2 c 0 0.550781 -0.449219 1 -1 1 h -12 c -0.550781 0 -1 -0.449219 -1 -1 v -2 c 0 -0.550781 0.449219 -1 1 -1 z m 0 0" fill="#241f31"/>
    <path d="m 85 74 h 6 c 0.550781 0 1 0.449219 1 1 v 2 c 0 0.550781 -0.449219 1 -1 1 h -6 c -0.550781 0 -1 -0.449219 -1 -1 v -2 c 0 -0.550781 0.449219 -1 1 -1 z m 0 0" fill="#241f31"/>
    <path d="m 85 86 h 6 c 0.550781 0 1 0.449219 1 1 v 2 c 0 0.550781 -0.449219 1 -1 1 h -6 c -0.550781 0 -1 -0.449219 -1 -1 v -2 c 0 -0.550781 0.449219 -1 1 -1 z m 0 0" fill="#241f31"/>
    <path d="m 75 74 h 6 c 0.550781 0 1 0.449219 1 1 v 2 c 0 0.550781 -0.449219 1 -1 1 h -6 c -0.550781 0 -1 -0.449219 -1 -1 v -2 c 0 -0.550781 0.449219 -1 1 -1 z m 0 0" fill="#241f31"/>
    <path d="m 79 80 h 6 c 0.550781 0 1 0.449219 1 1 v 2 c 0 0.550781 -0.449219 1 -1 1 h -6 c -0.550781 0 -1 -0.449219 -1 -1 v -2 c 0 -0.550781 0.449219 -1 1 -1 z m 0 0" fill="#241f31"/>
    <path d="m 97 74 h 6 c 0.550781 0 1 0.449219 1 1 v 2 c 0 0.550781 -0.449219 1 -1 1 h -6 c -0.550781 0 -1 -0.449219 -1 -1 v -2 c 0 -0.550781 0.449219 -1 1 -1 z m 0 0" fill="#241f31"/>
    <path d="m 97 86 h 6 c 0.550781 0 1 0.449219 1 1 v 2 c 0 0.550781 -0.449219 1 -1 1 h -6 c -0.550781 0 -1 -0.449219 -1 -1 v -2 c 0 -0.550781 0.449219 -1 1 -1 z m 0 0" fill="#241f31"/>
    <g fill="#3d3846">
        <path d="m 45 85 h 36 c 0.550781 0 1 0.449219 1 1 v 2 c 0 0.550781 -0.449219 1 -1 1 h -36 c -0.550781 0 -1 -0.449219 -1 -1 v -2 c 0 -0.550781 0.449219 -1 1 -1 z m 0 0"/>
        <path d="m 65 73 h 6 c 0.550781 0 1 0.449219 1 1 v 2 c 0 0.550781 -0.449219 1 -1 1 h -6 c -0.550781 0 -1 -0.449219 -1 -1 v -2 c 0 -0.550781 0.449219 -1 1 -1 z m 0 0"/>
        <path d="m 69 79 h 6 c 0.550781 0 1 0.449219 1 1 v 2 c 0 0.550781 -0.449219 1 -1 1 h -6 c -0.550781 0 -1 -0.449219 -1 -1 v -2 c 0 -0.550781 0.449219 -1 1 -1 z m 0 0"/>
        <path d="m 55 73 h 6 c 0.550781 0 1 0.449219 1 1 v 2 c 0 0.550781 -0.449219 1 -1 1 h -6 c -0.550781 0 -1 -0.449219 -1 -1 v -2 c 0 -0.550781 0.449219 -1 1 -1 z m 0 0"/>
        <path d="m 59 79 h 6 c 0.550781 0 1 0.449219 1 1 v 2 c 0 0.550781 -0.449219 1 -1 1 h -6 c -0.550781 0 -1 -0.449219 -1 -1 v -2 c 0 -0.550781 0.449219 -1 1 -1 z m 0 0"/>
        <path d="m 45 73 h 6 c 0.550781 0 1 0.449219 1 1 v 2 c 0 0.550781 -0.449219 1 -1 1 h -6 c -0.550781 0 -1 -0.449219 -1 -1 v -2 c 0 -0.550781 0.449219 -1 1 -1 z m 0 0"/>
        <path d="m 49 79 h 6 c 0.550781 0 1 0.449219 1 1 v 2 c 0 0.550781 -0.449219 1 -1 1 h -6 c -0.550781 0 -1 -0.449219 -1 -1 v -2 c 0 -0.550781 0.449219 -1 1 -1 z m 0 0"/>
        <path d="m 35 73 h 6 c 0.550781 0 1 0.449219 1 1 v 2 c 0 0.550781 -0.449219 1 -1 1 h -6 c -0.550781 0 -1 -0.449219 -1 -1 v -2 c 0 -0.550781 0.449219 -1 1 -1 z m 0 0"/>
        <path d="m 39 79 h 6 c 0.550781 0 1 0.449219 1 1 v 2 c 0 0.550781 -0.449219 1 -1 1 h -6 c -0.550781 0 -1 -0.449219 -1 -1 v -2 c 0 -0.550781 0.449219 -1 1 -1 z m 0 0"/>
        <path d="m 35 85 h 6 c 0.550781 0 1 0.449219 1 1 v 2 c 0 0.550781 -0.449219 1 -1 1 h -6 c -0.550781 0 -1 -0.449219 -1 -1 v -2 c 0 -0.550781 0.449219 -1 1 -1 z m 0 0"/>
        <path d="m 25 73 h 6 c 0.550781 0 1 0.449219 1 1 v 2 c 0 0.550781 -0.449219 1 -1 1 h -6 c -0.550781 0 -1 -0.449219 -1 -1 v -2 c 0 -0.550781 0.449219 -1 1 -1 z m 0 0"/>
        <path d="m 25 79 h 10 c 0.550781 0 1 0.449219 1 1 v 2 c 0 0.550781 -0.449219 1 -1 1 h -10 c -0.550781 0 -1 -0.449219 -1 -1 v -2 c 0 -0.550781 0.449219 -1 1 -1 z m 0 0"/>
        <path d="m 25 85 h 6 c 0.550781 0 1 0.449219 1 1 v 2 c 0 0.550781 -0.449219 1 -1 1 h -6 c -0.550781 0 -1 -0.449219 -1 -1 v -2 c 0 -0.550781 0.449219 -1 1 -1 z m 0 0"/>
        <path d="m 91 79 h 12 c 0.550781 0 1 0.449219 1 1 v 2 c 0 0.550781 -0.449219 1 -1 1 h -12 c -0.550781 0 -1 -0.449219 -1 -1 v -2 c 0 -0.550781 0.449219 -1 1 -1 z m 0 0"/>
        <path d="m 85 73 h 6 c 0.550781 0 1 0.449219 1 1 v 2 c 0 0.550781 -0.449219 1 -1 1 h -6 c -0.550781 0 -1 -0.449219 -1 -1 v -2 c 0 -0.550781 0.449219 -1 1 -1 z m 0 0"/>
        <path d="m 85 85 h 6 c 0.550781 0 1 0.449219 1 1 v 2 c 0 0.550781 -0.449219 1 -1 1 h -6 c -0.550781 0 -1 -0.449219 -1 -1 v -2 c 0 -0.550781 0.449219 -1 1 -1 z m 0 0"/>
        <path d="m 75 73 h 6 c 0.550781 0 1 0.449219 1 1 v 2 c 0 0.550781 -0.449219 1 -1 1 h -6 c -0.550781 0 -1 -0.449219 -1 -1 v -2 c 0 -0.550781 0.449219 -1 1 -1 z m 0 0"/>
        <path d="m 79 79 h 6 c 0.550781 0 1 0.449219 1 1 v 2 c 0 0.550781 -0.449219 1 -1 1 h -6 c -0.550781 0 -1 -0.449219 -1 -1 v -2 c 0 -0.550781 0.449219 -1 1 -1 z m 0 0"/>
        <path d="m 97 73 h 6 c 0.550781 0 1 0.449219 1 1 v 2 c 0 0.550781 -0.449219 1 -1 1 h -6 c -0.550781 0 -1 -0.449219 -1 -1 v -2 c 0 -0.550781 0.449219 -1 1 -1 z m 0 0"/>
        <path d="m 97 85 h 6 c 0.550781 0 1 0.449219 1 1 v 2 c 0 0.550781 -0.449219 1 -1 1 h -6 c -0.550781 0 -1 -0.449219 -1 -1 v -2 c 0 -0.550781 0.449219 -1 1 -1 z m 0 0"/>
    </g>
    <path d="m 53 94 h 26 c 1.65625 0 3 1.34375 3 3 v 10 c 0 1.65625 -1.34375 3 -3 3 h -26 c -1.65625 0 -3 -1.34375 -3 -3 v -10 c 0 -1.65625 1.34375 -3 3 -3 z m 0 0" fill="#5e5c64"/>
    <g clip-path="url(#f)" mask="url(#d)" transform="matrix(1 0 0 1 -8 -16)">
        <path d="m 116 36 h -88 v 46 h 88 z m 0 0" fill="url(#e)"/>
    </g>
    <path d="m 100 45.171875 v 14.828125 l -6 3 l -6 -3 v -14.796875 c -6.03125 2.441406 -9.984375 8.289063 -10 14.796875 c 0 8.835938 7.164062 16 16 16 s 16 -7.164062 16 -16 c 0 -6.519531 -3.957031 -12.382812 -10 -14.828125 z m 0 0" fill="#9a9996"/>
    <path d="m 100 43.171875 v 14.828125 l -6 3 l -6 -3 v -14.796875 c -6.03125 2.441406 -9.984375 8.289063 -10 14.796875 c 0 8.835938 7.164062 16 16 16 s 16 -7.164062 16 -16 c 0 -6.519531 -3.957031 -12.382812 -10 -14.828125 z m 0 0" fill="#deddda"/>
    <path d="m 94 66 c -4.433594 0 -8 3.566406 -8 8 v 38 c 0 4.433594 3.566406 8 8 8 s 8 -3.566406 8 -8 v -38 c 0 -4.433594 -3.566406 -8 -8 -8 z m 0 42 c 1.65625 0 3 1.34375 3 3 s -1.34375 3 -3 3 s -3 -1.34375 -3 -3 s 1.34375 -3 3 -3 z m 0 0" fill="#9a9996"/>
    <path d="m 94 64 c -4.433594 0 -8 3.566406 -8 8 v 38 c 0 4.433594 3.566406 8 8 8 s 8 -3.566406 8 -8 v -38 c 0 -4.433594 -3.566406 -8 -8 -8 z m 0 42 c 1.65625 0 3 1.34375 3 3 s -1.34375 3 -3 3 s -3 -1.34375 -3 -3 s 1.34375 -3 3 -3 z m 0 0" fill="#deddda"/>
    <path d="m 94 72 c 2.210938 0 4 1.789062 4 4 v 18 c 0 2.210938 -1.789062 4 -4 4 s -4 -1.789062 -4 -4 v -18 c 0 -2.210938 1.789062 -4 4 -4 z m 0 0" fill="#a7a6a4"/>
</svg>
